# xmcd CD database file
#
# Track frame offsets:
#	150
#	25475
#	45873
#	60400
#	74340
#	108483
#	124368
#	140098
#	173438
#	190790
#	209065
#	241073
#
# Disc length: 3450 seconds
#
# Revision: 0
# Processed by: cddbd v1.4PL0 Copyright (c) Steve Scherf et al.
# Submitted via: CDex 1.50
#
DISCID=aa0d780c
DTITLE=Lee Shot Williams - Cold Shot
DYEAR=1995
DGENRE=Blues
TTITLE0=If it wasn't for bad luck
TTITLE1=Love is a cold shot
TTITLE2=Drop your laundry
TTITLE3=Boogie down on the weekend
TTITLE4=Drowning on dry land
TTITLE5=I feel an urge coming on
TTITLE6=hogh steppin' mama
TTITLE7=Neither one of us
TTITLE8=Who is he What is he for you
TTITLE9=Don't let the green grass fool you
TTITLE10=How do you want your thrill
TTITLE11=I'm tore up
EXTD=YEAR: 1995
EXTT0=
EXTT1=
EXTT2=
EXTT3=
EXTT4=
EXTT5=
EXTT6=
EXTT7=
EXTT8=
EXTT9=
EXTT10=
EXTT11=
PLAYORDER=
